<svg width="203" height="25" viewBox="0 0 203 25" fill="none" xmlns="http://www.w3.org/2000/svg">
<path d="M12.6933 0L23.351 6.15327V18.4598L12.6933 24.6131L2.03548 18.4598V6.15327L12.6933 0Z" fill="#065E7C"/>
<path d="M37.9497 20H34.953V7.82721C34.953 6.97987 35.1184 6.26686 35.449 5.68819C35.7866 5.10263 36.2585 4.66174 36.8647 4.36551C37.4778 4.0624 38.2046 3.91084 39.0451 3.91084C39.3206 3.91084 39.5858 3.93151 39.8407 3.97284C40.0956 4.00729 40.3436 4.05206 40.5847 4.10718L40.5537 6.34953C40.4229 6.31509 40.2851 6.29098 40.1404 6.2772C39.9957 6.26342 39.827 6.25653 39.6341 6.25653C39.2758 6.25653 38.9693 6.31853 38.7144 6.44253C38.4664 6.55964 38.2769 6.73531 38.1461 6.96954C38.0152 7.20376 37.9497 7.48965 37.9497 7.82721V20ZM40.1817 8.81922V10.9272H33.2893V8.81922H40.1817ZM41.2667 14.5233V14.3063C41.2667 13.4865 41.3839 12.7322 41.6181 12.0433C41.8523 11.3475 42.1933 10.7447 42.6411 10.2349C43.0889 9.72512 43.64 9.32901 44.2944 9.04656C44.9489 8.75722 45.6998 8.61255 46.5471 8.61255C47.3945 8.61255 48.1488 8.75722 48.8102 9.04656C49.4715 9.32901 50.0261 9.72512 50.4738 10.2349C50.9285 10.7447 51.273 11.3475 51.5072 12.0433C51.7414 12.7322 51.8585 13.4865 51.8585 14.3063V14.5233C51.8585 15.3362 51.7414 16.0905 51.5072 16.7863C51.273 17.4752 50.9285 18.078 50.4738 18.5947C50.0261 19.1044 49.4749 19.5006 48.8205 19.783C48.166 20.0654 47.4151 20.2067 46.5678 20.2067C45.7205 20.2067 44.9661 20.0654 44.3048 19.783C43.6503 19.5006 43.0958 19.1044 42.6411 18.5947C42.1933 18.078 41.8523 17.4752 41.6181 16.7863C41.3839 16.0905 41.2667 15.3362 41.2667 14.5233ZM44.2428 14.3063V14.5233C44.2428 14.9917 44.2841 15.4292 44.3668 15.8356C44.4494 16.2421 44.5803 16.6003 44.7594 16.9103C44.9455 17.2134 45.1866 17.4511 45.4828 17.6233C45.779 17.7955 46.1407 17.8816 46.5678 17.8816C46.9811 17.8816 47.3359 17.7955 47.6321 17.6233C47.9284 17.4511 48.166 17.2134 48.3452 16.9103C48.5243 16.6003 48.6552 16.2421 48.7378 15.8356C48.8274 15.4292 48.8722 14.9917 48.8722 14.5233V14.3063C48.8722 13.8516 48.8274 13.4245 48.7378 13.0249C48.6552 12.6185 48.5208 12.2603 48.3348 11.9503C48.1557 11.6334 47.918 11.3854 47.6218 11.2062C47.3256 11.0271 46.9674 10.9376 46.5471 10.9376C46.1269 10.9376 45.7687 11.0271 45.4725 11.2062C45.1831 11.3854 44.9455 11.6334 44.7594 11.9503C44.5803 12.2603 44.4494 12.6185 44.3668 13.0249C44.2841 13.4245 44.2428 13.8516 44.2428 14.3063ZM53.2122 14.5233V14.3063C53.2122 13.4865 53.3293 12.7322 53.5635 12.0433C53.7978 11.3475 54.1388 10.7447 54.5865 10.2349C55.0343 9.72512 55.5854 9.32901 56.2399 9.04656C56.8943 8.75722 57.6452 8.61255 58.4926 8.61255C59.3399 8.61255 60.0943 8.75722 60.7556 9.04656C61.4169 9.32901 61.9715 9.72512 62.4193 10.2349C62.874 10.7447 63.2184 11.3475 63.4526 12.0433C63.6869 12.7322 63.804 13.4865 63.804 14.3063V14.5233C63.804 15.3362 63.6869 16.0905 63.4526 16.7863C63.2184 17.4752 62.874 18.078 62.4193 18.5947C61.9715 19.1044 61.4204 19.5006 60.7659 19.783C60.1115 20.0654 59.3606 20.2067 58.5133 20.2067C57.6659 20.2067 56.9116 20.0654 56.2502 19.783C55.5958 19.5006 55.0412 19.1044 54.5865 18.5947C54.1388 18.078 53.7978 17.4752 53.5635 16.7863C53.3293 16.0905 53.2122 15.3362 53.2122 14.5233ZM56.1882 14.3063V14.5233C56.1882 14.9917 56.2296 15.4292 56.3122 15.8356C56.3949 16.2421 56.5258 16.6003 56.7049 16.9103C56.8909 17.2134 57.132 17.4511 57.4282 17.6233C57.7245 17.7955 58.0861 17.8816 58.5133 17.8816C58.9266 17.8816 59.2814 17.7955 59.5776 17.6233C59.8738 17.4511 60.1115 17.2134 60.2906 16.9103C60.4697 16.6003 60.6006 16.2421 60.6833 15.8356C60.7728 15.4292 60.8176 14.9917 60.8176 14.5233V14.3063C60.8176 13.8516 60.7728 13.4245 60.6833 13.0249C60.6006 12.6185 60.4663 12.2603 60.2803 11.9503C60.1012 11.6334 59.8635 11.3854 59.5673 11.2062C59.271 11.0271 58.9128 10.9376 58.4926 10.9376C58.0724 10.9376 57.7141 11.0271 57.4179 11.2062C57.1286 11.3854 56.8909 11.6334 56.7049 11.9503C56.5258 12.2603 56.3949 12.6185 56.3122 13.0249C56.2296 13.4245 56.1882 13.8516 56.1882 14.3063ZM72.2361 17.5613V4.12784H75.2328V20H72.5357L72.2361 17.5613ZM65.168 14.5439V14.3269C65.168 13.4727 65.2644 12.6977 65.4573 12.0019C65.6502 11.2992 65.9327 10.6965 66.3047 10.1936C66.6767 9.69068 67.1348 9.30145 67.679 9.02589C68.2232 8.75033 68.8432 8.61255 69.539 8.61255C70.1935 8.61255 70.7653 8.75033 71.2544 9.02589C71.7504 9.30145 72.1706 9.69412 72.5151 10.2039C72.8664 10.7068 73.1488 11.3027 73.3624 11.9916C73.576 12.6736 73.731 13.421 73.8274 14.2339V14.7093C73.731 15.4877 73.576 16.2111 73.3624 16.8793C73.1488 17.5475 72.8664 18.1331 72.5151 18.636C72.1706 19.132 71.7504 19.5178 71.2544 19.7933C70.7584 20.0689 70.1797 20.2067 69.5184 20.2067C68.8226 20.2067 68.2026 20.0654 67.6583 19.783C67.121 19.5006 66.6663 19.1044 66.2943 18.5947C65.9292 18.0849 65.6502 17.4855 65.4573 16.7966C65.2644 16.1077 65.168 15.3568 65.168 14.5439ZM68.144 14.3269V14.5439C68.144 15.0055 68.1785 15.4361 68.2473 15.8356C68.3231 16.2352 68.4437 16.59 68.609 16.9C68.7812 17.2031 69.0017 17.4408 69.2704 17.613C69.5459 17.7783 69.88 17.861 70.2727 17.861C70.7825 17.861 71.2027 17.7473 71.5334 17.52C71.8641 17.2858 72.1155 16.9654 72.2877 16.559C72.4668 16.1525 72.5702 15.6841 72.5977 15.1536V13.7999C72.5771 13.3659 72.5151 12.9767 72.4117 12.6323C72.3153 12.2809 72.1706 11.9813 71.9777 11.7333C71.7917 11.4852 71.5575 11.2924 71.275 11.1546C70.9995 11.0168 70.6723 10.9479 70.2934 10.9479C69.9076 10.9479 69.5769 11.0375 69.3014 11.2166C69.0258 11.3888 68.8019 11.6265 68.6297 11.9296C68.4644 12.2327 68.3403 12.5909 68.2577 13.0043C68.1819 13.4107 68.144 13.8516 68.144 14.3269ZM87.9739 20.2067C87.1059 20.2067 86.3274 20.0689 85.6385 19.7933C84.9496 19.5109 84.3641 19.1217 83.8818 18.6257C83.4065 18.1296 83.0414 17.5544 82.7865 16.9C82.5316 16.2386 82.4042 15.536 82.4042 14.7919V14.3786C82.4042 13.5313 82.5247 12.7563 82.7658 12.0536C83.0069 11.3509 83.3514 10.7412 83.7992 10.2246C84.2538 9.7079 84.805 9.31178 85.4525 9.03622C86.1001 8.75378 86.8303 8.61255 87.6432 8.61255C88.4354 8.61255 89.1381 8.74344 89.7512 9.00522C90.3643 9.267 90.8776 9.63901 91.2909 10.1212C91.7111 10.6035 92.028 11.1821 92.2416 11.8573C92.4551 12.5255 92.5619 13.2695 92.5619 14.0893V15.3293H83.6752V13.3453H89.6376V13.1179C89.6376 12.7046 89.5618 12.336 89.4102 12.0123C89.2656 11.6816 89.0451 11.4198 88.7489 11.2269C88.4527 11.034 88.0738 10.9376 87.6122 10.9376C87.2195 10.9376 86.882 11.0237 86.5995 11.1959C86.3171 11.3681 86.0863 11.6093 85.9072 11.9193C85.735 12.2293 85.6041 12.5944 85.5145 13.0146C85.4319 13.4279 85.3905 13.8826 85.3905 14.3786V14.7919C85.3905 15.2397 85.4525 15.6531 85.5765 16.032C85.7074 16.4109 85.89 16.7381 86.1242 17.0136C86.3653 17.2892 86.6546 17.5028 86.9922 17.6543C87.3366 17.8059 87.7259 17.8816 88.1599 17.8816C88.6972 17.8816 89.1967 17.7783 89.6582 17.5716C90.1267 17.3581 90.5297 17.0377 90.8672 16.6106L92.3139 18.1813C92.0797 18.5189 91.7594 18.8427 91.3529 19.1527C90.9534 19.4627 90.4711 19.7176 89.9062 19.9173C89.3413 20.1102 88.6972 20.2067 87.9739 20.2067ZM96.654 8.81922L98.5036 12.2189L100.405 8.81922H103.577L100.415 14.2856L103.722 20H100.539L98.5243 16.404L96.5093 20H93.3266L96.6333 14.2856L93.4713 8.81922H96.654ZM108 10.9686V24.2987H105.024V8.81922H107.783L108 10.9686ZM115.078 14.2856V14.5026C115.078 15.3155 114.982 16.0698 114.789 16.7656C114.603 17.4614 114.328 18.0676 113.962 18.5843C113.597 19.0941 113.143 19.4937 112.598 19.783C112.061 20.0654 111.441 20.2067 110.738 20.2067C110.056 20.2067 109.464 20.0689 108.961 19.7933C108.458 19.5178 108.035 19.132 107.69 18.636C107.353 18.1331 107.08 17.551 106.874 16.8896C106.667 16.2283 106.509 15.5187 106.398 14.7609V14.1926C106.509 13.3797 106.667 12.6357 106.874 11.9606C107.08 11.2786 107.353 10.6896 107.69 10.1936C108.035 9.69068 108.455 9.30145 108.951 9.02589C109.454 8.75033 110.043 8.61255 110.718 8.61255C111.427 8.61255 112.051 8.74689 112.588 9.01556C113.132 9.28423 113.587 9.67001 113.952 10.1729C114.324 10.6758 114.603 11.2751 114.789 11.9709C114.982 12.6667 115.078 13.4383 115.078 14.2856ZM112.092 14.5026V14.2856C112.092 13.8103 112.051 13.3728 111.968 12.9733C111.892 12.5668 111.768 12.212 111.596 11.9089C111.431 11.6058 111.21 11.3716 110.935 11.2062C110.666 11.034 110.339 10.9479 109.953 10.9479C109.547 10.9479 109.199 11.0134 108.909 11.1442C108.627 11.2751 108.396 11.4646 108.217 11.7126C108.038 11.9606 107.904 12.2568 107.814 12.6013C107.725 12.9457 107.669 13.3349 107.649 13.7689V15.2053C107.683 15.7151 107.78 16.1732 107.938 16.5796C108.097 16.9792 108.341 17.2961 108.672 17.5303C109.002 17.7645 109.436 17.8816 109.974 17.8816C110.366 17.8816 110.697 17.7955 110.966 17.6233C111.234 17.4442 111.451 17.1996 111.617 16.8896C111.789 16.5796 111.91 16.2214 111.978 15.815C112.054 15.4085 112.092 14.9711 112.092 14.5026ZM120.07 4.12784V20H117.083V4.12784H120.07ZM122.054 14.5233V14.3063C122.054 13.4865 122.171 12.7322 122.405 12.0433C122.639 11.3475 122.98 10.7447 123.428 10.2349C123.876 9.72512 124.427 9.32901 125.081 9.04656C125.736 8.75722 126.487 8.61255 127.334 8.61255C128.181 8.61255 128.936 8.75722 129.597 9.04656C130.258 9.32901 130.813 9.72512 131.261 10.2349C131.715 10.7447 132.06 11.3475 132.294 12.0433C132.528 12.7322 132.645 13.4865 132.645 14.3063V14.5233C132.645 15.3362 132.528 16.0905 132.294 16.7863C132.06 17.4752 131.715 18.078 131.261 18.5947C130.813 19.1044 130.262 19.5006 129.607 19.783C128.953 20.0654 128.202 20.2067 127.355 20.2067C126.507 20.2067 125.753 20.0654 125.092 19.783C124.437 19.5006 123.883 19.1044 123.428 18.5947C122.98 18.078 122.639 17.4752 122.405 16.7863C122.171 16.0905 122.054 15.3362 122.054 14.5233ZM125.03 14.3063V14.5233C125.03 14.9917 125.071 15.4292 125.154 15.8356C125.236 16.2421 125.367 16.6003 125.546 16.9103C125.732 17.2134 125.973 17.4511 126.27 17.6233C126.566 17.7955 126.927 17.8816 127.355 17.8816C127.768 17.8816 128.123 17.7955 128.419 17.6233C128.715 17.4511 128.953 17.2134 129.132 16.9103C129.311 16.6003 129.442 16.2421 129.525 15.8356C129.614 15.4292 129.659 14.9917 129.659 14.5233V14.3063C129.659 13.8516 129.614 13.4245 129.525 13.0249C129.442 12.6185 129.308 12.2603 129.122 11.9503C128.943 11.6334 128.705 11.3854 128.409 11.2062C128.112 11.0271 127.754 10.9376 127.334 10.9376C126.914 10.9376 126.555 11.0271 126.259 11.2062C125.97 11.3854 125.732 11.6334 125.546 11.9503C125.367 12.2603 125.236 12.6185 125.154 13.0249C125.071 13.4245 125.03 13.8516 125.03 14.3063ZM137.45 11.2579V20H134.474V8.81922H137.275L137.45 11.2579ZM140.819 8.74689L140.767 11.5059C140.623 11.4852 140.447 11.468 140.24 11.4542C140.041 11.4336 139.858 11.4232 139.693 11.4232C139.272 11.4232 138.907 11.4784 138.597 11.5886C138.294 11.6919 138.039 11.8469 137.833 12.0536C137.633 12.2603 137.481 12.5117 137.378 12.8079C137.282 13.1042 137.226 13.4417 137.213 13.8206L136.613 13.6346C136.613 12.9113 136.686 12.2465 136.83 11.6403C136.975 11.0271 137.185 10.4932 137.461 10.0386C137.743 9.5839 138.088 9.23256 138.494 8.98456C138.9 8.73656 139.365 8.61255 139.889 8.61255C140.054 8.61255 140.223 8.62633 140.395 8.65389C140.568 8.67455 140.709 8.70555 140.819 8.74689ZM147.164 20.2067C146.296 20.2067 145.517 20.0689 144.828 19.7933C144.14 19.5109 143.554 19.1217 143.072 18.6257C142.596 18.1296 142.231 17.5544 141.976 16.9C141.722 16.2386 141.594 15.536 141.594 14.7919V14.3786C141.594 13.5313 141.715 12.7563 141.956 12.0536C142.197 11.3509 142.541 10.7412 142.989 10.2246C143.444 9.7079 143.995 9.31178 144.642 9.03622C145.29 8.75378 146.02 8.61255 146.833 8.61255C147.625 8.61255 148.328 8.74344 148.941 9.00522C149.554 9.267 150.067 9.63901 150.481 10.1212C150.901 10.6035 151.218 11.1821 151.432 11.8573C151.645 12.5255 151.752 13.2695 151.752 14.0893V15.3293H142.865V13.3453H148.827V13.1179C148.827 12.7046 148.752 12.336 148.6 12.0123C148.455 11.6816 148.235 11.4198 147.939 11.2269C147.643 11.034 147.264 10.9376 146.802 10.9376C146.409 10.9376 146.072 11.0237 145.789 11.1959C145.507 11.3681 145.276 11.6093 145.097 11.9193C144.925 12.2293 144.794 12.5944 144.704 13.0146C144.622 13.4279 144.58 13.8826 144.58 14.3786V14.7919C144.58 15.2397 144.642 15.6531 144.766 16.032C144.897 16.4109 145.08 16.7381 145.314 17.0136C145.555 17.2892 145.845 17.5028 146.182 17.6543C146.527 17.8059 146.916 17.8816 147.35 17.8816C147.887 17.8816 148.387 17.7783 148.848 17.5716C149.317 17.3581 149.72 17.0377 150.057 16.6106L151.504 18.1813C151.27 18.5189 150.949 18.8427 150.543 19.1527C150.143 19.4627 149.661 19.7176 149.096 19.9173C148.531 20.1102 147.887 20.2067 147.164 20.2067ZM156.423 11.2579V20H153.447V8.81922H156.247L156.423 11.2579ZM159.791 8.74689L159.74 11.5059C159.595 11.4852 159.419 11.468 159.213 11.4542C159.013 11.4336 158.83 11.4232 158.665 11.4232C158.245 11.4232 157.88 11.4784 157.57 11.5886C157.266 11.6919 157.012 11.8469 156.805 12.0536C156.605 12.2603 156.454 12.5117 156.35 12.8079C156.254 13.1042 156.199 13.4417 156.185 13.8206L155.586 13.6346C155.586 12.9113 155.658 12.2465 155.803 11.6403C155.947 11.0271 156.157 10.4932 156.433 10.0386C156.715 9.5839 157.06 9.23256 157.466 8.98456C157.873 8.73656 158.338 8.61255 158.861 8.61255C159.027 8.61255 159.195 8.62633 159.368 8.65389C159.54 8.67455 159.681 8.70555 159.791 8.74689Z" fill="white"/>
<path d="M173.564 15.916V12.6523C173.564 12.4023 173.514 12.1855 173.412 12.002C173.314 11.8145 173.166 11.6699 172.967 11.5684C172.768 11.4668 172.521 11.416 172.229 11.416C171.955 11.416 171.715 11.4629 171.508 11.5566C171.305 11.6504 171.145 11.7734 171.027 11.9258C170.914 12.0781 170.857 12.2422 170.857 12.418H169.773C169.773 12.1914 169.832 11.9668 169.949 11.7441C170.066 11.5215 170.234 11.3203 170.453 11.1406C170.676 10.957 170.941 10.8125 171.25 10.707C171.562 10.5977 171.91 10.543 172.293 10.543C172.754 10.543 173.16 10.6211 173.512 10.7773C173.867 10.9336 174.145 11.1699 174.344 11.4863C174.547 11.7988 174.648 12.1914 174.648 12.6641V15.6172C174.648 15.8281 174.666 16.0527 174.701 16.291C174.74 16.5293 174.797 16.7344 174.871 16.9062V17H173.74C173.686 16.875 173.643 16.709 173.611 16.502C173.58 16.291 173.564 16.0957 173.564 15.916ZM173.752 13.1562L173.764 13.918H172.668C172.359 13.918 172.084 13.9434 171.842 13.9941C171.6 14.041 171.396 14.1133 171.232 14.2109C171.068 14.3086 170.943 14.4316 170.857 14.5801C170.771 14.7246 170.729 14.8945 170.729 15.0898C170.729 15.2891 170.773 15.4707 170.863 15.6348C170.953 15.7988 171.088 15.9297 171.268 16.0273C171.451 16.1211 171.676 16.168 171.941 16.168C172.273 16.168 172.566 16.0977 172.82 15.957C173.074 15.8164 173.275 15.6445 173.424 15.4414C173.576 15.2383 173.658 15.041 173.67 14.8496L174.133 15.3711C174.105 15.5352 174.031 15.7168 173.91 15.916C173.789 16.1152 173.627 16.3066 173.424 16.4902C173.225 16.6699 172.986 16.8203 172.709 16.9414C172.436 17.0586 172.127 17.1172 171.783 17.1172C171.354 17.1172 170.977 17.0332 170.652 16.8652C170.332 16.6973 170.082 16.4727 169.902 16.1914C169.727 15.9062 169.639 15.5879 169.639 15.2363C169.639 14.8965 169.705 14.5977 169.838 14.3398C169.971 14.0781 170.162 13.8613 170.412 13.6895C170.662 13.5137 170.963 13.3809 171.314 13.291C171.666 13.2012 172.059 13.1562 172.492 13.1562H173.752ZM180.35 15.7695V8H181.439V17H180.443L180.35 15.7695ZM176.084 13.9004V13.7773C176.084 13.293 176.143 12.8535 176.26 12.459C176.381 12.0605 176.551 11.7188 176.77 11.4336C176.992 11.1484 177.256 10.9297 177.561 10.7773C177.869 10.6211 178.213 10.543 178.592 10.543C178.99 10.543 179.338 10.6133 179.635 10.7539C179.936 10.8906 180.189 11.0918 180.396 11.3574C180.607 11.6191 180.773 11.9355 180.895 12.3066C181.016 12.6777 181.1 13.0977 181.146 13.5664V14.1055C181.104 14.5703 181.02 14.9883 180.895 15.3594C180.773 15.7305 180.607 16.0469 180.396 16.3086C180.189 16.5703 179.936 16.7715 179.635 16.9121C179.334 17.0488 178.982 17.1172 178.58 17.1172C178.209 17.1172 177.869 17.0371 177.561 16.877C177.256 16.7168 176.992 16.4922 176.77 16.2031C176.551 15.9141 176.381 15.5742 176.26 15.1836C176.143 14.7891 176.084 14.3613 176.084 13.9004ZM177.174 13.7773V13.9004C177.174 14.2168 177.205 14.5137 177.268 14.791C177.334 15.0684 177.436 15.3125 177.572 15.5234C177.709 15.7344 177.883 15.9004 178.094 16.0215C178.305 16.1387 178.557 16.1973 178.85 16.1973C179.209 16.1973 179.504 16.1211 179.734 15.9688C179.969 15.8164 180.156 15.6152 180.297 15.3652C180.438 15.1152 180.547 14.8438 180.625 14.5508V13.1387C180.578 12.9238 180.51 12.7168 180.42 12.5176C180.334 12.3145 180.221 12.1348 180.08 11.9785C179.943 11.8184 179.773 11.6914 179.57 11.5977C179.371 11.5039 179.135 11.457 178.861 11.457C178.564 11.457 178.309 11.5195 178.094 11.6445C177.883 11.7656 177.709 11.9336 177.572 12.1484C177.436 12.3594 177.334 12.6055 177.268 12.8867C177.205 13.1641 177.174 13.4609 177.174 13.7773ZM184.205 11.9199V17H183.115V10.6602H184.146L184.205 11.9199ZM183.982 13.5898L183.479 13.5723C183.482 13.1387 183.539 12.7383 183.648 12.3711C183.758 12 183.92 11.6777 184.135 11.4043C184.35 11.1309 184.617 10.9199 184.938 10.7715C185.258 10.6191 185.629 10.543 186.051 10.543C186.348 10.543 186.621 10.5859 186.871 10.6719C187.121 10.7539 187.338 10.8848 187.521 11.0645C187.705 11.2441 187.848 11.4746 187.949 11.7559C188.051 12.0371 188.102 12.377 188.102 12.7754V17H187.018V12.8281C187.018 12.4961 186.961 12.2305 186.848 12.0312C186.738 11.832 186.582 11.6875 186.379 11.5977C186.176 11.5039 185.938 11.457 185.664 11.457C185.344 11.457 185.076 11.5137 184.861 11.627C184.646 11.7402 184.475 11.8965 184.346 12.0957C184.217 12.2949 184.123 12.5234 184.064 12.7812C184.01 13.0352 183.982 13.3047 183.982 13.5898ZM188.09 12.9922L187.363 13.2148C187.367 12.8672 187.424 12.5332 187.533 12.2129C187.646 11.8926 187.809 11.6074 188.02 11.3574C188.234 11.1074 188.498 10.9102 188.811 10.7656C189.123 10.6172 189.48 10.543 189.883 10.543C190.223 10.543 190.523 10.5879 190.785 10.6777C191.051 10.7676 191.273 10.9062 191.453 11.0938C191.637 11.2773 191.775 11.5137 191.869 11.8027C191.963 12.0918 192.01 12.4355 192.01 12.834V17H190.92V12.8223C190.92 12.4668 190.863 12.1914 190.75 11.9961C190.641 11.7969 190.484 11.6582 190.281 11.5801C190.082 11.498 189.844 11.457 189.566 11.457C189.328 11.457 189.117 11.498 188.934 11.5801C188.75 11.6621 188.596 11.7754 188.471 11.9199C188.346 12.0605 188.25 12.2227 188.184 12.4062C188.121 12.5898 188.09 12.7852 188.09 12.9922ZM194.828 10.6602V17H193.738V10.6602H194.828ZM193.656 8.97852C193.656 8.80273 193.709 8.6543 193.814 8.5332C193.924 8.41211 194.084 8.35156 194.295 8.35156C194.502 8.35156 194.66 8.41211 194.77 8.5332C194.883 8.6543 194.939 8.80273 194.939 8.97852C194.939 9.14648 194.883 9.29102 194.77 9.41211C194.66 9.5293 194.502 9.58789 194.295 9.58789C194.084 9.58789 193.924 9.5293 193.814 9.41211C193.709 9.29102 193.656 9.14648 193.656 8.97852ZM197.652 12.0137V17H196.568V10.6602H197.594L197.652 12.0137ZM197.395 13.5898L196.943 13.5723C196.947 13.1387 197.012 12.7383 197.137 12.3711C197.262 12 197.438 11.6777 197.664 11.4043C197.891 11.1309 198.16 10.9199 198.473 10.7715C198.789 10.6191 199.139 10.543 199.521 10.543C199.834 10.543 200.115 10.5859 200.365 10.6719C200.615 10.7539 200.828 10.8867 201.004 11.0703C201.184 11.2539 201.32 11.4922 201.414 11.7852C201.508 12.0742 201.555 12.4277 201.555 12.8457V17H200.465V12.834C200.465 12.502 200.416 12.2363 200.318 12.0371C200.221 11.834 200.078 11.6875 199.891 11.5977C199.703 11.5039 199.473 11.457 199.199 11.457C198.93 11.457 198.684 11.5137 198.461 11.627C198.242 11.7402 198.053 11.8965 197.893 12.0957C197.736 12.2949 197.613 12.5234 197.523 12.7812C197.438 13.0352 197.395 13.3047 197.395 13.5898Z" fill="#82F3FF"/>
</svg>
